<svg width="40" height="16" viewBox="0 0 40 16" fill="none" xmlns="http://www.w3.org/2000/svg">
<path d="M5.76221 0.556641C2.70557 0.556641 0.527832 2.64648 0.527832 5.50781V5.52734C0.527832 8.20312 2.42236 10.1758 5.12744 10.1758C7.06104 10.1758 8.2915 9.18945 8.80908 8.07617H9.00439C9.00439 8.18359 8.99463 8.29102 8.99463 8.39844C8.88721 11.0938 7.93994 13.2812 5.70361 13.2812C4.46338 13.2812 3.59424 12.6367 3.22314 11.6504L3.19385 11.5527H0.713379L0.73291 11.6602C1.18213 13.8184 3.11572 15.3516 5.70361 15.3516C9.24854 15.3516 11.3872 12.5391 11.3872 7.79297V7.77344C11.3872 2.69531 8.77002 0.556641 5.76221 0.556641ZM5.75244 8.24219C4.15088 8.24219 2.98877 7.07031 2.98877 5.43945V5.41992C2.98877 3.84766 4.229 2.60742 5.78174 2.60742C7.34424 2.60742 8.56494 3.86719 8.56494 5.47852V5.49805C8.56494 7.08984 7.34424 8.24219 5.75244 8.24219ZM15.8208 5.86914C16.7192 5.86914 17.3735 5.18555 17.3735 4.32617C17.3735 3.45703 16.7192 2.7832 15.8208 2.7832C14.9321 2.7832 14.2681 3.45703 14.2681 4.32617C14.2681 5.18555 14.9321 5.86914 15.8208 5.86914ZM15.8208 13.1152C16.7192 13.1152 17.3735 12.4414 17.3735 11.5723C17.3735 10.7031 16.7192 10.0293 15.8208 10.0293C14.9321 10.0293 14.2681 10.7031 14.2681 11.5723C14.2681 12.4414 14.9321 13.1152 15.8208 13.1152ZM27.0903 15H29.5024V12.2949H31.397V10.2148H29.5024V0.908203H25.938C24.0239 3.81836 22.022 7.06055 20.1958 10.2344V12.2949H27.0903V15ZM22.5396 10.2734V10.127C23.9067 7.73438 25.5376 5.12695 26.9829 2.91992H27.1294V10.2734H22.5396ZM37.2368 15H39.7563V0.908203H37.2466L33.5649 3.49609V5.86914L37.0708 3.38867H37.2368V15Z" fill="white"/>
</svg>
